<svg width="512" height="512" viewBox="0 0 512 512" fill="none" xmlns="http://www.w3.org/2000/svg" xmlns:xlink="http://www.w3.org/1999/xlink" class=""><rect id="r4" width="512" height="512" x="0" y="0" rx="128" fill="#680C2C" stroke="#FFFFFF" stroke-width="0" stroke-opacity="100%" paint-order="stroke"></rect><clipPath id="clip"><use xlink:href="#r4"></use></clipPath><defs><linearGradient id="r5" gradientUnits="userSpaceOnUse" gradientTransform="rotate(35)" style="transform-origin: center center;"><stop stop-color="#680C2C"></stop><stop offset="1" stop-color="#380202"></stop></linearGradient><radialGradient id="r6" cx="0" cy="0" r="1" gradientUnits="userSpaceOnUse" gradientTransform="translate(256) rotate(90) scale(512)"><stop stop-color="white"></stop><stop offset="1" stop-color="white" stop-opacity="0"></stop></radialGradient></defs><svg width="352" height="352" viewBox="0 0 216.602 143.359" xmlns="http://www.w3.org/2000/svg" x="80" y="80" alignment-baseline="middle" style="color: rgb(255, 255, 255);"><g id="svgGroup" stroke-linecap="round" fill-rule="evenodd" font-size="9pt" stroke="#ffffff" stroke-width="1.25mm" fill="#ffffff" style="stroke: rgb(255, 255, 255); stroke-width: 1.25mm; fill: rgb(255, 255, 255);"><path d="M 99.414 80.469 L 99.414 52.539 L 0 27.93 L 0 52.148 L 63.672 66.016 L 63.672 66.992 L 0 80.859 L 0 105.078 L 99.414 80.469 Z M 0 136.523 L 99.414 136.523 L 99.414 110.938 L 0 110.938 L 0 136.523 Z" id="0" vector-effect="non-scaling-stroke"></path><path d="M 183.789 0 L 183.789 97.852 A 42.013 42.013 0 0 1 183.787 98.295 C 183.656 110.638 178.062 116.932 168.305 116.992 A 22.946 22.946 0 0 1 168.164 116.992 C 158.634 116.992 152.784 110.988 152.349 99.945 A 32.838 32.838 0 0 1 152.344 99.805 L 119.141 99.805 A 65.428 65.428 0 0 0 119.14 99.844 C 118.963 129.894 140.05 143.359 166.211 143.359 C 196.094 143.359 216.602 125.391 216.602 97.852 L 216.602 0 L 183.789 0 Z" id="1" vector-effect="non-scaling-stroke"></path></g></svg></svg>